PathFileType	4	(X/Y/Z)	/Users/itak/Documents/Research/Walk-IL/dataset/trc/00338_00011.trc
DataRate	CameraRate	NumFrames	NumMarkers	Units	OrigDataRate	OrigDataStartFrame	OrigNumFrames
100.000000	100.000000	4	54	mm	100.000000	0	764
Frame#	Time	RPSI			LPSI			L3			STRN			T10			C7			CLAV			RBAK			LBAK			LSHO			LUPA			LAEL			LAOL			LWTS			LWPS			LFRA			LIFD			LHPS			LHTS			RSHO			RUPA			RAEL			RAOL			RWPS			RFRA			RIFD			RHTS			RHPS			RBHD			LFHD			RFHD			LBHD			LHIP			RHIP			RASI			LASI			LKNE			LTHI			LANK			LTIP			LTOE			LMT1			LMT5			LHEE			RKNE			RTHI			RANK			RTIP			RTOE			RMT5			RHEE			RWTS			RMT1			*53			
		X1	Y1	Z1	X2	Y2	Z2	X3	Y3	Z3	X4	Y4	Z4	X5	Y5	Z5	X6	Y6	Z6	X7	Y7	Z7	X8	Y8	Z8	X9	Y9	Z9	X10	Y10	Z10	X11	Y11	Z11	X12	Y12	Z12	X13	Y13	Z13	X14	Y14	Z14	X15	Y15	Z15	X16	Y16	Z16	X17	Y17	Z17	X18	Y18	Z18	X19	Y19	Z19	X20	Y20	Z20	X21	Y21	Z21	X22	Y22	Z22	X23	Y23	Z23	X24	Y24	Z24	X25	Y25	Z25	X26	Y26	Z26	X27	Y27	Z27	X28	Y28	Z28	X29	Y29	Z29	X30	Y30	Z30	X31	Y31	Z31	X32	Y32	Z32	X33	Y33	Z33	X34	Y34	Z34	X35	Y35	Z35	X36	Y36	Z36	X37	Y37	Z37	X38	Y38	Z38	X39	Y39	Z39	X40	Y40	Z40	X41	Y41	Z41	X42	Y42	Z42	X43	Y43	Z43	X44	Y44	Z44	X45	Y45	Z45	X46	Y46	Z46	X47	Y47	Z47	X48	Y48	Z48	X49	Y49	Z49	X50	Y50	Z50	X51	Y51	Z51	X52	Y52	Z52	X53	Y53	Z53	X54	Y54	Z54	

1	0	-60.06047439575195	984.0543823242188	1194.847534179688	-56.09528732299805	982.5572509765625	1066.493041992188	-60.82139205932617	1036.092041015625	1133.153198242188	154.4064178466797	1220.970092773438	1122.810668945312	-81.19797515869141	1153.418090820312	1114.885620117188	-44.90284729003906	1402.390258789062	1096.851684570312	110.4426574707031	1345.81396484375	1114.109985351562	-97.97025299072266	1266.869873046875	1167.03125	-47.83671569824219	1363.012451171875	995.538818359375	40.97664260864258	1379.010498046875	944.3502807617188	32.21044540405273	1256.7392578125	879.0379638671875	58.94358825683594	1052.410522460938	877.4580078125	-11.79264545440674	1040.06298828125	925.3938598632812	149.9091949462891	812.3199462890625	946.7120361328125	121.4760131835938	799.3402099609375	885.2551879882812	77.59105682373047	948.3250122070312	877.193115234375	152.4869232177734	651.6910400390625	957.7734375	116.3071899414062	728.7874755859375	893.3970336914062	164.5298156738281	732.6708374023438	935.6473999023438	2.38750171661377	1392.048461914062	1263.479370117188	-10.69471168518066	1326.717529296875	1327.465087890625	13.89315509796143	1060.084106445312	1369.044921875	-23.96938514709473	1048.413696289062	1284.020874023438	102.6185607910156	822.8309326171875	1397.974853515625	43.62380981445312	995.2766723632812	1380.11083984375	155.7636566162109	665.9041137695312	1340.4033203125	170.1373901367188	737.4095458984375	1348.207397460938	119.5522003173828	738.0757446289062	1396.239868164062	-28.5699577331543	1597.353393554688	1164.841674804688	161.5811462402344	1632.636352539062	1086.462646484375	129.4927673339844	1635.063354492188	1182.113037109375	-7.380794525146484	1585.328979492188	1021.983581542969	30.01318168640137	920.1223754882812	965.4094848632812	16.39582443237305	926.9804077148438	1305.219848632812	122.2110748291016	953.7900390625	1263.664916992188	150.4725341796875	943.9315185546875	1024.815185546875	43.42896270751953	461.0198059082031	994.1466064453125	54.96123504638672	601.3272705078125	979.681396484375	-40.57951736450195	46.84941482543945	1027.090209960938	-0.5247175097465515	246.3291168212891	998.32421875	158.4408874511719	49.44013214111328	1096.501220703125	103.6610794067383	46.36745834350586	1148.971923828125	85.02171325683594	42.23379898071289	1018.674255371094	-79.22602081298828	45.83416748046875	1092.470336914062	29.41510963439941	462.0837097167969	1277.165283203125	75.89680480957031	720.4274291992188	1307.72607421875	-35.63126754760742	50.15726089477539	1243.422973632812	32.02212142944336	344.0707092285156	1265.779541015625	156.6985168457031	48.69791793823242	1193.524291992188	64.36894226074219	36.02841949462891	1263.845092773438	-85.16040802001953	54.09165573120117	1195.278930664062	137.2496490478516	837.6537475585938	1332.333740234375	89.49758911132812	30.50955581665039	1135.749145507812	nan	nan	nan	
2	0.01	-60.02052688598633	984.0422973632812	1194.78662109375	-56.05910110473633	982.5091552734375	1066.402465820312	-60.77378463745117	1036.0634765625	1133.093017578125	154.4338226318359	1220.938842773438	1122.737670898438	-81.16024780273438	1153.364379882812	1114.841552734375	-44.91386032104492	1402.342041015625	1096.823608398438	110.4799728393555	1345.794067382812	1114.019775390625	-97.91762542724609	1266.792846679688	1166.956176757812	-47.83309555053711	1362.979858398438	995.5105590820312	40.97879791259766	1378.98046875	944.2913818359375	32.21096038818359	1256.717651367188	878.959716796875	58.99255752563477	1052.419311523438	877.319580078125	-11.66965293884277	1039.98486328125	925.2089233398438	150.0395812988281	812.339599609375	946.5524291992188	121.6366348266602	799.3820190429688	885.0087280273438	77.64952850341797	948.3203735351562	877.0033569335938	152.7347717285156	651.6994018554688	957.4680786132812	116.5402145385742	728.8123779296875	893.0946655273438	164.7627105712891	732.743408203125	935.3400268554688	2.413240671157837	1392.0166015625	1263.420654296875	-10.62662410736084	1326.672973632812	1327.407470703125	13.8925838470459	1060.064331054688	1369.060302734375	-23.92007637023926	1048.340942382812	1283.97802734375	102.5946578979492	822.77099609375	1397.980102539062	43.64608383178711	995.2418823242188	1380.111206054688	155.699462890625	665.8041381835938	1340.46728515625	170.0569763183594	737.2992553710938	1348.238159179688	119.5806121826172	737.968994140625	1396.319091796875	-28.57796859741211	1597.31689453125	1164.838623046875	161.5729217529297	1632.607543945312	1086.384033203125	129.489013671875	1635.0478515625	1182.086181640625	-7.41517162322998	1585.328125	1021.967224121094	30.13669776916504	920.0316772460938	965.3250122070312	16.44771766662598	926.9502563476562	1305.117065429688	122.2486724853516	953.6917724609375	1263.512939453125	150.5244293212891	943.873046875	1024.66943359375	43.46897506713867	460.9496459960938	994.1597900390625	54.91960525512695	601.2606201171875	979.6633911132812	-40.53271484375	46.86455154418945	1027.128295898438	-0.4873074889183044	246.2235260009766	998.43603515625	158.8807830810547	48.58858108520508	1096.651489257812	103.7306671142578	46.025146484375	1148.976440429688	85.13404846191406	42.26909255981445	1018.84033203125	-79.22370147705078	45.81827163696289	1092.563232421875	29.50135231018066	462.06298828125	1276.97412109375	77.16864776611328	719.6748657226562	1306.9150390625	-35.56489562988281	50.19454193115234	1243.332763671875	32.08292388916016	344.0643005371094	1265.634399414062	156.8330383300781	48.46997833251953	1193.49072265625	64.42044067382812	36.0727424621582	1263.738525390625	-85.16233825683594	54.10799026489258	1195.249145507812	137.2256622314453	837.5520629882812	1332.35546875	89.57653045654297	30.26296997070312	1135.819213867188	nan	nan	nan	
3	0.02	-59.96551513671875	984.0350952148438	1194.708740234375	-56.01834106445312	982.4500732421875	1066.292114257812	-60.70317077636719	1036.021362304688	1133.009643554688	154.4772033691406	1220.897216796875	1122.6357421875	-81.10565185546875	1153.294677734375	1114.777465820312	-44.91382217407227	1402.28125	1096.777587890625	110.5312652587891	1345.77001953125	1113.906372070312	-97.84938049316406	1266.697265625	1166.863037109375	-47.82242965698242	1362.940673828125	995.47314453125	40.99069595336914	1378.948364257812	944.2169189453125	32.213623046875	1256.693969726562	878.8662109375	59.06064224243164	1052.431884765625	877.1473999023438	-11.51684761047363	1039.890258789062	924.98583984375	150.2320404052734	812.370361328125	946.3239135742188	121.8346252441406	799.4331665039062	884.6968994140625	77.73577117919922	948.3179321289062	876.7737426757812	153.0434722900391	651.71923828125	957.1091918945312	116.8291702270508	728.8463134765625	892.73681640625	165.0346374511719	732.8245849609375	934.9915161132812	2.445619821548462	1391.976440429688	1263.352172851562	-10.54728031158447	1326.62158203125	1327.339233398438	13.89866924285889	1060.033813476562	1369.079833984375	-23.85165596008301	1048.248046875	1283.92431640625	102.5758590698242	822.6926879882812	1397.987060546875	43.68059921264648	995.1948852539062	1380.108154296875	155.6316223144531	665.6758422851562	1340.55419921875	169.9794616699219	737.1856079101562	1348.28564453125	119.6216049194336	737.835693359375	1396.4130859375	-28.58913993835449	1597.277465820312	1164.838623046875	161.5705108642578	1632.57421875	1086.285278320312	129.4920806884766	1635.026245117188	1182.050170898438	-7.450826168060303	1585.32421875	1021.947570800781	30.26015663146973	919.940185546875	965.230224609375	16.52017211914062	926.9170532226562	1304.989624023438	122.2918548583984	953.5718383789062	1263.341918945312	150.6094665527344	943.8203735351562	1024.476318359375	43.51567077636719	460.8578796386719	994.1881103515625	54.88146209716797	601.1719970703125	979.6475219726562	-40.47991180419922	46.88179779052734	1027.17431640625	-0.445435643196106	246.1007537841797	998.5695190429688	159.3546600341797	47.63462066650391	1096.8154296875	103.8079605102539	45.64319610595703	1148.98779296875	85.26523590087891	42.31075668334961	1019.039611816406	-79.22428894042969	45.81328201293945	1092.661987304688	29.59496116638184	462.0437622070312	1276.7509765625	78.49898529052734	718.9027099609375	1306.057373046875	-35.49232482910156	50.23768615722656	1243.234375	32.13733291625977	344.0513916015625	1265.4658203125	156.9864044189453	48.19826507568359	1193.45068359375	64.47385406494141	36.12216949462891	1263.624145507812	-85.16526794433594	54.12199020385742	1195.216186523438	137.2091064453125	837.4258422851562	1332.383666992188	89.66053009033203	29.98325347900391	1135.904907226562	nan	nan	nan	
4	0.03	-59.89346313476562	984.037109375	1194.614990234375	-55.9759635925293	982.3839111328125	1066.167114257812	-60.60584259033203	1035.964599609375	1132.901733398438	154.5395050048828	1220.846801757812	1122.50390625	-81.03395843505859	1153.2119140625	1114.693481445312	-44.89699935913086	1402.211303710938	1096.711303710938	110.5957870483398	1345.74365234375	1113.77490234375	-97.77063751220703	1266.591064453125	1166.757690429688	-47.8033561706543	1362.898193359375	995.4279174804688	41.01421356201172	1378.91796875	944.131103515625	32.21902084350586	1256.671142578125	878.7637329101562	59.14825057983398	1052.449096679688	876.9502563476562	-11.34276676177979	1039.786254882812	924.7396850585938	150.4859771728516	812.4124145507812	946.0275268554688	122.0597152709961	799.4922485351562	884.3323974609375	77.85199737548828	948.31982421875	876.5171508789062	153.4002380371094	651.7567749023438	956.7201538085938	117.1588516235352	728.8878173828125	892.3490600585938	165.3302154541016	732.90771484375	934.6239013671875	2.483292102813721	1391.929443359375	1263.279418945312	-10.46119689941406	1326.56640625	1327.264282226562	13.91568851470947	1059.992065429688	1369.101684570312	-23.76434707641602	1048.13916015625	1283.861694335938	102.5676879882812	822.5988159179688	1397.995971679688	43.72843551635742	995.1358032226562	1380.0986328125	155.5700073242188	665.5230712890625	1340.662719726562	169.9187622070312	737.0845336914062	1348.349609375	119.6767120361328	737.68310546875	1396.515869140625	-28.6021842956543	1597.2392578125	1164.8427734375	161.5780487060547	1632.53955078125	1086.170776367188	129.5056304931641	1634.99853515625	1182.005126953125	-7.482862949371338	1585.31640625	1021.925598144531	30.37275314331055	919.8524780273438	965.1279907226562	16.61172294616699	926.8859252929688	1304.844360351562	122.3396072387695	953.437744140625	1263.1650390625	150.7304992675781	943.7846069335938	1024.241455078125	43.56377792358398	460.7521667480469	994.2308349609375	54.85572052001953	601.0645141601562	979.6353149414062	-40.42641067504883	46.89905166625977	1027.225341796875	-0.4051881730556488	245.9743499755859	998.7097778320312	159.8116455078125	46.68046188354492	1096.971923828125	103.8879470825195	45.26753616333008	1149.0048828125	85.40219879150391	42.35359191894531	1019.253601074219	-79.22994232177734	45.82325744628906	1092.7548828125	29.68465232849121	462.031005859375	1276.516845703125	79.69893646240234	718.229248046875	1305.271606445312	-35.41973876953125	50.28140640258789	1243.138427734375	32.17561721801758	344.0333557128906	1265.291748046875	157.1452941894531	47.90168762207031	1193.4072265625	64.52317047119141	36.17113876342773	1263.514892578125	-85.16841888427734	54.13119125366211	1195.183715820312	137.2078399658203	837.2816772460938	1332.415893554688	89.74099731445312	29.70124244689941	1135.9990234375	nan	nan	nan	
